<svg version="1.2" xmlns="http://www.w3.org/2000/svg" viewBox="0 0 40 40" width="40" height="40"><style>tspan{white-space:pre}.a{fill:#fff}.b{font-size: 24px;fill: #000000;font-weight: 400;font-family: "DejaVuSans", "DejaVu Sans"}</style><path class="a" d="m0 20c0-11 9-20 20-20 11 0 20 9 20 20 0 11-9 20-20 20-11 0-20-9-20-20z"/><text style="transform:matrix(1,0,0,1,30,-8)" ></text><text style="transform:matrix(1,0,0,1,-1,9)" ><tspan x="11.6" y="18.2" class="b">A</tspan><tspan  y="18.2" class="b">
</tspan></text><text style="transform:matrix(1,0,0,1,39,-8)" ></text><path fill-rule="evenodd" d="m58.6 1q0.2 0.4 0.6 0.8 0.4 0.2 0.6 0.4 0.2 0.2 0.2 0.4v0.1q0 0.3-0.4 0.3h-4.3q-0.5 0-0.5-0.3v-0.1q0-0.2 0.3-0.4 0.2-0.3 0.3-0.4 0.1-0.3-0.1-0.8l-2.2-3.5h-2.2v3.5q0 0.5 0.4 1 0.5 0.4 0.5 0.6v0.1q0 0.3-0.5 0.3h-3.9q-0.4 0-0.4-0.3v-0.1q0-0.2 0.4-0.6 0.4-0.5 0.4-1v-10.6q0-0.4-0.4-0.9-0.4-0.4-0.4-0.6v-0.1q0-0.3 0.4-0.3h5.1q2.8 0 4.5 1.1 1.7 1.2 1.7 3.5 0 1.2-0.8 2.3-0.7 1-2 1.6zm-6.5-4.8h0.8q1.2 0 1.9-0.7 0.7-0.7 0.7-2.1 0-1.7-1-2.7-0.9-1-2.2-1h-0.7q-0.7 0-0.7 0.9v4.3q0 0.7 0.3 1 0.3 0.3 0.9 0.3z"/></svg>